<svg width="24" height="24" viewBox="0 0 24 24" fill="none" xmlns="http://www.w3.org/2000/svg">
    <path d="M9.0689 6.45559C8.34607 6.93858 8.78605 8.16887 9.61766 7.98144C10.5629 7.76998 10.4469 6.34506 9.4847 6.34506C9.30339 6.34506 9.18735 6.3763 9.0689 6.45559Z"
          fill="black"/>
    <path d="M14.0731 6.50125C13.4059 7.08275 13.9039 8.2001 14.733 7.97904C15.1464 7.8685 15.4365 7.3663 15.3157 6.96982C15.144 6.40033 14.4768 6.14802 14.0731 6.50125Z"
          fill="black"/>
    <path d="M6.49428 12.6046C6.42901 12.6911 6.31055 12.9434 6.22836 13.1693C6.14858 13.3928 6.02529 13.7172 5.95277 13.8902C5.18884 15.714 4.82622 17.9391 5.25653 18.1674C5.64333 18.374 5.81255 18.1746 5.85607 17.4657C5.92134 16.346 6.03738 15.8678 6.62724 14.2747C6.74812 13.9431 6.92459 13.5225 7.01404 13.3375C7.24612 12.8666 7.25337 12.7512 7.06964 12.5662C6.89075 12.3884 6.64658 12.4052 6.49428 12.6046Z"
          fill="black"/>
    <path d="M17.0998 12.4821C16.7637 12.6046 16.7347 12.8786 16.9982 13.4C17.6993 14.7865 18.1634 16.4301 18.1634 17.5258C18.1634 17.9895 18.323 18.2635 18.5962 18.2635C18.7025 18.2635 18.9298 18.0112 18.9564 17.8598C19.0458 17.3936 18.7702 15.7717 18.456 14.9042C17.5615 12.4412 17.5035 12.3355 17.0998 12.4821Z"
          fill="black"/>
    <path d="M11.9578 21.964C11.9998 21.964 12.033 22 12.078 22C12.1141 22 12.1478 21.9806 12.1821 21.9694C12.1854 21.9683 12.1888 21.9673 12.1923 21.9664C12.3542 21.9231 12.4413 21.851 12.5235 21.6924C12.5694 21.6035 12.7024 21.4858 12.8547 21.3993C13.9184 20.801 15.2721 19.3904 16.0699 18.052C16.696 16.9947 17.1457 15.1854 16.8483 14.9114C16.6525 14.7312 16.4615 14.7216 16.2754 14.8874C16.1231 15.0244 16.1158 15.0436 16.0796 15.529C15.949 17.2735 14.4695 19.4577 12.5767 20.7024C12.2517 20.9158 12.1372 20.9958 12.032 20.9852C11.9666 20.9786 11.9048 20.9369 11.7982 20.8706C9.65393 19.5466 8.14059 17.4537 7.96653 15.5674C7.88917 14.7432 7.13975 14.5798 7.13975 15.3896C7.13975 17.2398 9.31548 20.4501 11.1939 21.3752C11.4114 21.4834 11.5637 21.5915 11.5903 21.654C11.6363 21.7741 11.8611 21.964 11.9578 21.964Z"
          fill="black"/>
    <path d="M9.35174 2.53405C9.79172 2.33941 10.5049 2.12315 10.8868 2.06789C12.156 1.88286 13.8386 2.08711 14.8032 2.54606C15.1658 2.71907 15.2262 2.73109 15.7508 2.75512C16.5655 2.79116 17.1046 2.97859 18.1248 3.58172C19.1559 4.19467 19.7432 5.15171 20.6269 5.93657C21.6349 6.83285 22.0024 7.46962 22 8.32265C22 8.80083 21.8549 9.11081 21.5697 9.24777C21.4657 9.29823 21.3279 9.36311 21.2651 9.39195C21.1925 9.42559 21.1055 9.55775 21.0185 9.7644C20.7743 10.3483 20.5785 10.5261 20.1845 10.5261C20.0734 10.5261 19.988 10.6238 20.0036 10.7331L20.0442 11.0187C20.1409 11.7011 20.0394 11.9823 19.6236 12.1937C18.7751 12.6191 17.4213 12.0375 16.933 11.0355C16.6404 10.4396 16.6114 10.1921 16.6259 8.24336C16.6453 5.93657 16.6066 5.75394 15.978 5.12919C15.555 4.70868 15.5381 4.45638 15.9176 4.29778C16.1932 4.18485 16.5051 4.38669 16.8628 4.91053C17.3608 5.63861 17.3995 5.86448 17.4116 8.17127C17.4213 10.2282 17.4334 10.3339 17.6993 10.788C17.9531 11.2182 18.5067 11.545 18.9926 11.5546C19.3649 11.5618 19.3988 11.5185 19.2948 11.1701C19.1546 10.6919 19.1667 9.2694 19.3118 9.12282C19.6405 8.79362 20.0007 9.04353 20.0007 9.601V9.82595C20.0007 9.8795 20.0643 9.90799 20.1047 9.87253C20.4842 9.53612 20.4794 8.91617 20.0926 7.98625C19.9548 7.65705 20.5543 7.37831 20.8082 7.65464C20.9653 7.82525 21.004 7.93098 21.0693 8.35149C21.1394 8.81765 21.1877 8.85129 21.2312 8.47163C21.3207 7.71472 21.0427 7.31583 19.3964 5.84285C19.1038 5.58094 18.6252 5.134 18.3327 4.85286C17.327 3.87968 16.8338 3.64419 15.6203 3.55769C15.0062 3.51444 14.97 3.50482 14.53 3.29337C13.87 2.97618 13.3261 2.83441 12.6395 2.80318C12.306 2.78766 11.9724 2.78876 11.6387 2.78876C10.8312 2.78876 10.1568 2.94735 9.41218 3.3174C9.06164 3.49041 9.03022 3.49761 8.39684 3.52164C7.42985 3.56009 6.72878 3.85324 6.04947 4.50443C5.34598 5.17725 4.31372 6.1288 3.97285 6.41715C3.03004 7.21732 2.64082 7.83727 2.76653 8.33467C2.80038 8.46683 2.88499 8.50768 2.88499 8.38993C2.88499 8.01748 3.2331 7.52729 3.48936 7.5369C3.94143 7.55372 4.05021 7.77239 3.83506 8.23134C3.57639 8.77921 3.56672 9.35831 3.80605 9.74998C3.94143 9.97105 3.99703 9.93741 3.99703 9.63464C3.99703 9.106 4.41525 8.90896 4.74645 9.27661C4.87457 9.42078 4.87941 10.5814 4.7537 11.0139C4.63524 11.42 4.64491 11.4777 4.84314 11.5137C5.42334 11.6218 6.14133 11.1581 6.46769 10.466C6.57603 10.2364 6.63381 9.98643 6.63715 9.73282L6.65867 8.09918C6.69252 5.64101 6.71911 5.51366 7.33556 4.69907C7.79247 4.09834 8.20102 3.99742 8.42585 4.43235C8.51771 4.60776 8.42585 4.79999 8.17926 4.95137C7.51446 5.35987 7.45402 5.62899 7.45402 8.14724V9.88749C7.45402 10.1028 7.41045 10.3159 7.32589 10.5141C6.79888 11.7588 5.69168 12.4677 4.61348 12.2538C4.27262 12.1865 4.25811 12.1769 4.10098 11.9438C3.99443 11.7881 3.94307 11.6015 3.95502 11.4135L3.9656 11.247C3.98252 10.9947 4.00911 10.7352 4.02362 10.6703C4.05021 10.5574 4.04054 10.5477 3.86165 10.5429C3.42892 10.5333 2.98652 10.1921 2.71576 9.66107C2.64324 9.51449 2.47885 9.28382 2.35314 9.14685C1.72218 8.46202 1.95426 7.31103 2.90916 6.36909C3.37574 5.91013 5.0438 4.44917 5.2662 4.30499L5.27144 4.30168C6.28922 3.65791 6.87073 2.82005 8.30014 2.74551C8.90934 2.71427 8.97945 2.69985 9.35174 2.53405Z"
          fill="black"/>
    <path fill-rule="evenodd" clip-rule="evenodd"
          d="M12.0084 9.74277L11.9358 9.74938L11.4985 9.7644C9.92468 9.81726 9.8304 11.3023 11.3317 12.4076C11.6653 12.6527 11.6653 12.6575 11.4598 12.8593C10.4469 13.8686 8.68694 12.7392 8.84891 11.1869C8.88759 10.8361 8.72803 10.6222 8.42826 10.6222C7.52413 10.6222 8.22278 13.0708 9.28163 13.609C9.42185 13.6811 9.48954 13.7628 9.58382 13.9695C10.0552 15.0292 10.8675 15.5578 12.0714 15.5866C13.0553 15.6083 13.8483 15.1109 14.4091 14.1161C14.5662 13.8397 14.6992 13.6667 14.8056 13.6018C15.9587 12.893 16.5099 10.4036 15.4704 10.5958C15.2214 10.6439 15.1585 10.7784 15.1948 11.1821C15.335 12.708 13.7878 13.8349 12.7338 12.9723C12.434 12.7272 12.4268 12.6719 12.6613 12.4629C13.621 11.6074 13.812 11.3503 13.812 10.889C13.812 10.1873 13.3188 9.76199 12.4824 9.74277H12.0084ZM12.1439 11.8189C12.8861 11.3647 13.1883 10.913 12.9248 10.6487C12.8015 10.5285 12.7942 10.5261 12.0617 10.5309C11.1407 10.5357 11.0609 10.5622 11.0585 10.8866C11.0536 11.2254 11.9119 11.9607 12.1439 11.8189ZM13.2487 13.9863C12.9248 13.9863 12.5476 13.8541 12.2648 13.6427C12.0875 13.5083 12.0326 13.4602 11.992 13.4702C11.9673 13.4762 11.9479 13.5038 11.9094 13.5466C11.7716 13.698 11.3873 13.8758 11.0077 13.9647C10.7546 14.0245 10.6517 14.042 10.6377 14.0869C10.6269 14.1213 10.6684 14.1718 10.7345 14.2698C11.2374 15.0268 12.7797 15.0196 13.3333 14.2602C13.5195 14.0055 13.5122 13.9863 13.2487 13.9863Z"
          fill="black"/>
</svg>
