<svg width="552" height="555" viewBox="0 0 552 555" fill="none" xmlns="http://www.w3.org/2000/svg">
<g clip-path="url(#clip0_1_29)">
<path d="M194.939 123.617C175.005 137.017 187.139 171.15 210.072 165.95C236.139 160.083 232.939 120.55 206.405 120.55C201.405 120.55 198.205 121.417 194.939 123.617Z" fill="black"/>
<path d="M332.939 124.883C314.539 141.017 328.272 172.017 351.139 165.883C362.539 162.817 370.539 148.883 367.205 137.883C362.472 122.083 344.072 115.083 332.939 124.883Z" fill="black"/>
<path d="M123.939 294.217C122.139 296.617 118.872 303.617 116.605 309.883C114.405 316.083 111.005 325.083 109.005 329.883C87.9386 380.483 77.9386 442.217 89.8053 448.55C100.472 454.283 105.139 448.75 106.339 429.083C108.139 398.017 111.339 384.75 127.605 340.55C130.939 331.35 135.805 319.683 138.272 314.55C144.672 301.483 144.872 298.283 139.805 293.15C134.872 288.217 128.139 288.683 123.939 294.217Z" fill="black"/>
<path d="M416.405 290.817C407.139 294.217 406.339 301.817 413.605 316.283C432.939 354.75 445.739 400.35 445.739 430.75C445.739 443.617 450.139 451.217 457.672 451.217C460.605 451.217 466.872 444.217 467.605 440.017C470.072 427.083 462.472 382.083 453.805 358.017C429.139 289.683 427.539 286.75 416.405 290.817Z" fill="black"/>
<path d="M446.872 464.15C439.272 468.817 438.539 476.283 444.939 482.683C451.005 488.75 458.205 489.017 463.472 483.483C473.539 473.017 459.272 456.483 446.872 464.15Z" fill="black"/>
<path d="M274.605 553.883C275.553 553.883 276.304 554.883 277.251 554.883H277.921C278.916 554.883 279.844 554.344 280.79 554.033C280.881 554.003 280.975 553.976 281.072 553.95C285.539 552.75 287.939 550.75 290.205 546.35C291.472 543.883 295.139 540.617 299.339 538.217C328.672 521.617 366.005 482.483 388.005 445.35C405.272 416.017 417.672 365.817 409.472 358.217C404.072 353.217 398.805 352.95 393.672 357.55C389.472 361.35 389.272 361.883 388.272 375.35C384.672 423.75 343.872 484.35 291.672 518.883C282.709 524.804 279.553 527.022 276.652 526.727C274.848 526.544 273.144 525.39 270.205 523.55C211.072 486.817 169.339 428.75 164.539 376.417C162.405 353.55 141.739 349.017 141.739 371.483C141.739 422.817 201.739 511.883 253.539 537.55C259.539 540.55 263.739 543.55 264.472 545.283C265.739 548.617 271.939 553.883 274.605 553.883Z" fill="black"/>
<path d="M202.739 14.8168C214.872 9.41674 234.539 3.41677 245.072 1.88341C280.072 -3.24992 326.472 2.41677 353.072 15.1501C363.072 19.9501 364.739 20.2834 379.205 20.9501C401.672 21.9501 416.539 27.1501 444.672 43.8834C451.472 47.9501 458.005 51.8168 459.072 52.4168C460.205 53.0167 461.072 55.3501 461.072 57.5501C461.072 61.7501 466.072 66.6834 513.672 109.217C541.472 134.083 551.605 151.75 551.539 175.417C551.539 188.683 547.539 197.283 539.672 201.083C536.805 202.483 533.005 204.283 531.272 205.083C529.272 206.017 526.872 209.683 524.472 215.417C517.739 231.617 512.339 236.55 501.472 236.55C498.409 236.55 496.055 239.26 496.484 242.293L497.605 250.217C500.272 269.15 497.472 276.95 486.005 282.817C462.605 294.617 425.272 278.483 411.805 250.683C403.739 234.15 402.939 227.283 403.339 173.217C403.872 109.217 402.805 104.15 385.472 86.8168C373.805 75.1501 373.339 68.1501 383.805 63.7501C391.405 60.6168 400.005 66.2168 409.872 80.7501C423.605 100.95 424.672 107.217 425.005 171.217C425.272 228.283 425.605 231.217 432.939 243.817C439.939 255.75 455.205 264.817 468.605 265.083C478.872 265.283 479.805 264.083 476.939 254.417C473.072 241.15 473.405 201.683 477.405 197.617C486.472 188.483 496.405 195.417 496.405 210.883V217.124C496.405 218.61 498.159 219.401 499.272 218.417C509.739 209.083 509.605 191.883 498.939 166.083C495.139 156.95 511.672 149.217 518.672 156.883C523.005 161.617 524.072 164.55 525.872 176.217C527.805 189.15 529.139 190.083 530.339 179.55C532.805 158.55 525.139 147.483 479.739 106.617C471.672 99.3501 458.472 86.9501 450.405 79.1501C422.672 52.1501 409.072 45.6168 375.605 43.2168C358.672 42.0167 357.672 41.7501 345.539 35.8834C327.339 27.0834 312.339 23.1501 293.405 22.2834L278.214 21.5723C277.901 21.5577 277.588 21.6103 277.297 21.7267C277.038 21.8302 276.762 21.8834 276.483 21.8834H265.805C243.539 21.8834 224.939 26.2834 204.405 36.5501C194.739 41.3501 193.872 41.5501 176.405 42.2168C149.739 43.2834 130.405 51.4167 111.672 69.4834C92.2719 88.1501 63.8052 114.55 54.4052 122.55C28.4052 144.75 17.6719 161.95 21.1386 175.75C22.0719 179.417 24.4052 180.55 24.4052 177.283C24.4052 166.95 34.0052 153.35 41.0719 153.617C53.5386 154.083 56.5386 160.15 50.6052 172.883C43.4719 188.083 43.2052 204.15 49.8052 215.017C53.5386 221.15 55.0719 220.217 55.0719 211.817C55.0719 197.15 66.6052 191.683 75.7386 201.883C79.2719 205.883 79.4052 238.083 75.9386 250.083C72.6719 261.35 72.9386 262.95 78.4052 263.95C94.4052 266.95 114.205 254.083 123.205 234.883C126.193 228.512 127.786 221.577 127.878 214.541L128.472 169.217C129.405 101.017 130.139 97.4835 147.139 74.8834C159.739 58.2168 171.005 55.4167 177.205 67.4834C179.739 72.3501 177.205 77.6834 170.405 81.8834C152.072 93.2168 150.405 100.683 150.405 170.55V218.832C150.405 224.805 149.204 230.717 146.872 236.217C132.339 270.75 101.805 290.417 72.0719 284.483C62.6719 282.617 62.2719 282.35 57.9386 275.883C55.0002 271.562 53.584 266.386 53.9134 261.171L54.2052 256.55C54.6719 249.55 55.4052 242.35 55.8052 240.55C56.5386 237.417 56.2719 237.15 51.3386 237.017C39.4052 236.75 27.2052 227.283 19.7386 212.55C17.7386 208.483 13.2052 202.083 9.73858 198.283C-7.66142 179.283 -1.26142 147.35 25.0719 121.217C37.9386 108.483 83.9386 67.9501 90.0719 63.9501L90.2162 63.8583C92.0985 62.6605 92.5279 60.0957 91.1386 58.3501C87.2052 53.3501 88.1386 52.6168 111.672 40.8168C145.139 24.0834 152.139 21.8168 173.739 20.6834C190.539 19.8168 192.472 19.4167 202.739 14.8168Z" fill="black"/>
<path fill-rule="evenodd" clip-rule="evenodd" d="M276 214.817L274 215L261.939 215.417C218.539 216.883 215.939 258.083 257.339 288.75C266.539 295.55 266.539 295.683 260.872 301.283C232.939 329.283 184.405 297.95 188.872 254.883C189.939 245.15 185.539 239.217 177.272 239.217C152.339 239.217 171.605 307.15 200.805 322.083C204.672 324.083 206.539 326.35 209.139 332.083C222.139 361.483 244.539 376.15 277.739 376.95C304.872 377.55 326.739 363.75 342.205 336.15C346.539 328.483 350.205 323.683 353.139 321.883C384.939 302.217 400.139 233.15 371.472 238.483C364.605 239.817 362.872 243.55 363.872 254.75C367.739 297.083 325.072 328.35 296.005 304.417C287.739 297.617 287.539 296.083 294.005 290.283C320.472 266.55 325.739 259.417 325.739 246.617C325.739 227.15 312.139 215.35 289.072 214.817H276ZM279.739 272.417C300.205 259.817 308.539 247.283 301.272 239.95C297.872 236.617 297.672 236.55 277.472 236.683C252.072 236.817 249.872 237.55 249.805 246.55C249.672 255.95 273.339 276.35 279.739 272.417ZM310.205 332.55C301.272 332.55 290.872 328.883 283.072 323.017C278.184 319.288 276.668 317.954 275.548 318.23C274.867 318.398 274.332 319.164 273.272 320.35C269.472 324.55 258.872 329.483 248.405 331.95C241.424 333.611 238.587 334.096 238.201 335.341C237.905 336.296 239.049 337.697 240.872 340.417C254.739 361.417 297.272 361.217 312.539 340.15C317.672 333.083 317.472 332.55 310.205 332.55Z" fill="black"/>
</g>
<defs>
<clipPath id="clip0_1_29">
<rect width="551.539" height="554.883" fill="white" transform="matrix(1 0 0 -1 0 554.883)"/>
</clipPath>
</defs>
</svg>
